<?xml version='1.0' encoding='utf-8'?>
<!DOCTYPE svg PUBLIC '-//W3C//DTD SVG 1.1//EN' 'http://www.w3.org/Graphics/SVG/1.1/DTD/svg11.dtd'>
<svg version="1.1" xmlns="http://www.w3.org/2000/svg" viewBox="0 0 512 512" xmlns:xlink="http://www.w3.org/1999/xlink" enable-background="new 0 0 512 512">
  <g>
    <g fill="#475839">
      <path d="M480.6,43.5h-66.4V31.4c0-11.3-9.1-20.4-20.4-20.4s-20.4,9.1-20.4,20.4v12.1H138.6V31.4c0-11.3-9.1-20.4-20.4-20.4    c-11.3,0-20.4,9.1-20.4,20.4v12.1H31.4C20.1,43.5,11,52.7,11,64v416.6c0,11.3,9.1,20.4,20.4,20.4h449.2c11.3,0,20.4-9.1,20.4-20.4    V64C501,52.7,491.9,43.5,480.6,43.5z M460.2,460.2H51.8V84.4h45.9v12.1c0,11.3,9.1,20.4,20.4,20.4c11.3,0,20.4-9.1,20.4-20.4V84.4    h234.8v12.1c0,11.3,9.1,20.4,20.4,20.4s20.4-9.1,20.4-20.4V84.4h45.9V460.2z"/>
      <path d="m135.9,192.1h-21.5c-11.3,0-20.4,9.1-20.4,20.4 0,11.3 9.1,20.4 20.4,20.4h21.5c11.3,0 20.4-9.1 20.4-20.4 0-11.2-9.1-20.4-20.4-20.4z"/>
      <path d="m266.8,192.1h-21.5c-11.3,0-20.4,9.1-20.4,20.4 0,11.3 9.1,20.4 20.4,20.4h21.5c11.3,0 20.4-9.1 20.4-20.4 0-11.2-9.2-20.4-20.4-20.4z"/>
      <path d="m397.6,192.1h-21.5c-11.3,0-20.4,9.1-20.4,20.4 0,11.3 9.1,20.4 20.4,20.4h21.5c11.3,0 20.4-9.1 20.4-20.4 0-11.2-9.1-20.4-20.4-20.4z"/>
      <path d="m135.9,284h-21.5c-11.3,0-20.4,9.1-20.4,20.4 0,11.3 9.1,20.4 20.4,20.4h21.5c11.3,0 20.4-9.1 20.4-20.4 0-11.3-9.1-20.4-20.4-20.4z"/>
      <path d="m266.8,284h-21.5c-11.3,0-20.4,9.1-20.4,20.4 0,11.3 9.1,20.4 20.4,20.4h21.5c11.3,0 20.4-9.1 20.4-20.4 0-11.3-9.2-20.4-20.4-20.4z"/>
      <path d="m397.6,284h-21.5c-11.3,0-20.4,9.1-20.4,20.4 0,11.3 9.1,20.4 20.4,20.4h21.5c11.3,0 20.4-9.1 20.4-20.4 0-11.3-9.1-20.4-20.4-20.4z"/>
      <path d="m135.9,375.9h-21.5c-11.3,0-20.4,9.1-20.4,20.4 0,11.3 9.1,20.4 20.4,20.4h21.5c11.3,0 20.4-9.1 20.4-20.4 0-11.3-9.1-20.4-20.4-20.4z"/>
      <path d="m266.8,375.9h-21.5c-11.3,0-20.4,9.1-20.4,20.4 0,11.3 9.1,20.4 20.4,20.4h21.5c11.3,0 20.4-9.1 20.4-20.4 0-11.3-9.2-20.4-20.4-20.4z"/>
      <path d="m397.6,375.9h-21.5c-11.3,0-20.4,9.1-20.4,20.4 0,11.3 9.1,20.4 20.4,20.4h21.5c11.3,0 20.4-9.1 20.4-20.4 0-11.3-9.1-20.4-20.4-20.4z"/>
    </g>
  </g>
</svg>
