<svg xmlns="http://www.w3.org/2000/svg" width="70.056" height="46.06" viewBox="0 0 70.056 46.06">
  <path fill="#475839" id="Mail-Icon-svg-98uyhgv" d="M428.476,187.869a4.992,4.992,0,0,0-3.461-1.377H365.027a5.107,5.107,0,0,0-1.694.29,5.056,5.056,0,0,0-3.34,4.742v35.994a5.044,5.044,0,0,0,3.34,4.739,4.961,4.961,0,0,0,1.694.295h59.988a4.967,4.967,0,0,0,1.695-.295,5.035,5.035,0,0,0,3.339-4.739V191.526a5.017,5.017,0,0,0-1.573-3.657m-6.586,2.693L404.9,207.549l-1.062,1.06-8.136,8.139a.966.966,0,0,1-1.364,0l-8.138-8.139-1.059-1.06-16.992-16.987Zm-57.824,36.25V192.233l17.289,17.287Zm4.086,1.668L384.234,212.4l7.227,7.229a5.024,5.024,0,0,0,3.421,1.473h.146a5.016,5.016,0,0,0,3.554-1.473l7.227-7.229L421.89,228.48Zm57.824-1.668L408.691,209.52l17.285-17.287Z" transform="translate(-359.993 -186.492)"/>
</svg>
